<?xml version="1.0" encoding="utf-8"?>
<!-- Generator: Adobe Illustrator 23.0.1, SVG Export Plug-In . SVG Version: 6.00 Build 0)  -->
<svg version="1.1" id="Layer_1" xmlns="http://www.w3.org/2000/svg" xmlns:xlink="http://www.w3.org/1999/xlink" x="0px" y="0px"
	 viewBox="0 0 256 256" style="enable-background:new 0 0 256 256;" xml:space="preserve">
<style type="text/css">
	.st0{fill:#CCCCCC;}
</style>
<path class="st0" d="M250.7,69C247.7,57.9,239,49.2,228,46.2c-20-5.4-100-5.4-100-5.4s-80.1,0-100,5.4C17,49.2,8.3,57.9,5.3,69
	C0,89.1,0,131,0,131s0,41.9,5.3,62C8.3,204.1,17,212.8,28,215.8c20,5.4,100,5.4,100,5.4s80.1,0,100-5.4c11-3,19.7-11.7,22.6-22.8
	c5.3-20.1,5.3-62,5.3-62S256,89.1,250.7,69z M101.8,169.1V92.9l66.9,38.1L101.8,169.1z"/>
</svg>
